[2024-12-26 19:26:27] ä»»åŠ¡å·²åŠ å…¥é˜Ÿåˆ—ï¼Œå½“å‰ä½ç½®ï¼š2
[2024-12-26 19:32:00] å¼€å§‹å¤„ç†ä»»åŠ¡...
[2024-12-26 19:32:04] tango args: C:\computer\3\itproject\digitaltool\file\action\20241226192627-1bbd50\20241226192627-1bbd50.wav C:\computer\3\itproject\digitaltool\file\action\20241226192627-1bbd50\20241226192627-1bbd50.mp4 C:\computer\3\itproject\digitaltool\file\action\20241226192627-1bbd50\20241226192627-1bbd50_output.mp4
[2024-12-26 19:32:04] è§†é¢‘å¼€å§‹ç”Ÿæˆ
[2024-12-26 19:32:05] C:\computer\3\itproject\manyaitools_modules\TANGO\datasets/data_json/youtube_test/speaker1.json
[2024-12-26 19:32:07] ffmpeg version 2024-06-24-git-6ec22731ae-full_build-www.gyan.dev Copyright (c) 2000-2024 the FFmpeg developers
[2024-12-26 19:32:07] built with gcc 13.2.0 (Rev5, Built by MSYS2 project)
[2024-12-26 19:32:07] configuration: --enable-gpl --enable-version3 --enable-static --disable-w32threads --disable-autodetect --enable-fontconfig --enable-iconv --enable-gnutls --enable-libxml2 --enable-gmp --enable-bzlib --enable-lzma --enable-libsnappy --enable-zlib --enable-librist --enable-libsrt --enable-libssh --enable-libzmq --enable-avisynth --enable-libbluray --enable-libcaca --enable-sdl2 --enable-libaribb24 --enable-libaribcaption --enable-libdav1d --enable-libdavs2 --enable-libopenjpeg --enable-libquirc --enable-libuavs3d --enable-libxevd --enable-libzvbi --enable-libqrencode --enable-librav1e --enable-libsvtav1 --enable-libwebp --enable-libx264 --enable-libx265 --enable-libxavs2 --enable-libxeve --enable-libxvid --enable-libaom --enable-libjxl --enable-libvpx --enable-mediafoundation --enable-libass --enable-frei0r --enable-libfreetype --enable-libfribidi --enable-libharfbuzz --enable-liblensfun --enable-libvidstab --enable-libvmaf --enable-libzimg --enable-amf --enable-cuda-llvm --enable-cuvid --enable-dxva2 --enable-d3d11va --enable-d3d12va --enable-ffnvcodec --enable-libvpl --enable-nvdec --enable-nvenc --enable-vaapi --enable-libshaderc --enable-vulkan --enable-libplacebo --enable-opencl --enable-libcdio --enable-libgme --enable-libmodplug --enable-libopenmpt --enable-libopencore-amrwb --enable-libmp3lame --enable-libshine --enable-libtheora --enable-libtwolame --enable-libvo-amrwbenc --enable-libcodec2 --enable-libilbc --enable-libgsm --enable-libopencore-amrnb --enable-libopus --enable-libspeex --enable-libvorbis --enable-ladspa --enable-libbs2b --enable-libflite --enable-libmysofa --enable-librubberband --enable-libsoxr --enable-chromaprint
[2024-12-26 19:32:07] libavutil      59. 25.100 / 59. 25.100
[2024-12-26 19:32:07] libavcodec     61.  8.100 / 61.  8.100
[2024-12-26 19:32:07] libavformat    61.  4.100 / 61.  4.100
[2024-12-26 19:32:07] libavdevice    61.  2.100 / 61.  2.100
[2024-12-26 19:32:07] libavfilter    10.  2.102 / 10.  2.102
[2024-12-26 19:32:07] libswscale      8.  2.100 /  8.  2.100
[2024-12-26 19:32:07] libswresample   5.  2.100 /  5.  2.100
[2024-12-26 19:32:07] libpostproc    58.  2.100 / 58.  2.100
[2024-12-26 19:32:07] Input #0, mov,mp4,m4a,3gp,3g2,mj2, from 'C:\computer\3\itproject\manyaitools_modules\TANGO\outputs/tmpvideo\save_video_fps.mp4':
[2024-12-26 19:32:07] Metadata:
[2024-12-26 19:32:07] major_brand     : isom
[2024-12-26 19:32:07] minor_version   : 512
[2024-12-26 19:32:07] compatible_brands: isomiso2mp41
[2024-12-26 19:32:07] encoder         : Lavf58.76.100
[2024-12-26 19:32:07] Duration: 00:00:10.00, start: 0.000000, bitrate: 4877 kb/s
[2024-12-26 19:32:07] Stream #0:0[0x1](und): Video: mpeg4 (Simple Profile) (mp4v / 0x7634706D), yuv420p, 720x1280 [SAR 1:1 DAR 9:16], 4875 kb/s, 30 fps, 30 tbr, 15360 tbn (default)
[2024-12-26 19:32:07] Metadata:
[2024-12-26 19:32:07] handler_name    : VideoHandler
[2024-12-26 19:32:07] vendor_id       : [0][0][0][0]
[2024-12-26 19:32:07] Stream mapping:
[2024-12-26 19:32:07] Stream #0:0 -> #0:0 (mpeg4 (native) -> h264 (libx264))
[2024-12-26 19:32:07] Press [q] to stop, [?] for help
[2024-12-26 19:32:07] [libx264 @ 000001762ae3d2c0] using SAR=1/1
[2024-12-26 19:32:07] [libx264 @ 000001762ae3d2c0] using cpu capabilities: MMX2 SSE2Fast SSSE3 SSE4.2 AVX FMA3 BMI2 AVX2
[2024-12-26 19:32:07] [libx264 @ 000001762ae3d2c0] profile High, level 3.1, 4:2:0, 8-bit
[2024-12-26 19:32:07] [libx264 @ 000001762ae3d2c0] 264 - core 164 r3191 4613ac3 - H.264/MPEG-4 AVC codec - Copyleft 2003-2024 - http://www.videolan.org/x264.html - options: cabac=1 ref=3 deblock=1:0:0 analyse=0x3:0x113 me=hex subme=7 psy=1 psy_rd=1.00:0.00 mixed_ref=1 me_range=16 chroma_me=1 trellis=1 8x8dct=1 cqm=0 deadzone=21,11 fast_pskip=1 chroma_qp_offset=-2 threads=24 lookahead_threads=4 sliced_threads=0 nr=0 decimate=1 interlaced=0 bluray_compat=0 constrained_intra=0 bframes=3 b_pyramid=2 b_adapt=1 b_bias=0 direct=1 weightb=1 open_gop=0 weightp=2 keyint=250 keyint_min=25 scenecut=40 intra_refresh=0 rc_lookahead=40 rc=crf mbtree=1 crf=23.0 qcomp=0.60 qpmin=0 qpmax=69 qpstep=4 ip_ratio=1.40 aq=1:1.00
[2024-12-26 19:32:07] Output #0, mp4, to 'C:\computer\3\itproject\manyaitools_modules\TANGO\outputs/tmpvideo\save_video.mp4':
[2024-12-26 19:32:07] Metadata:
[2024-12-26 19:32:07] major_brand     : isom
[2024-12-26 19:32:07] minor_version   : 512
[2024-12-26 19:32:07] compatible_brands: isomiso2mp41
[2024-12-26 19:32:07] encoder         : Lavf61.4.100
[2024-12-26 19:32:07] Stream #0:0(und): Video: h264 (avc1 / 0x31637661), yuv420p(progressive), 720x1280 [SAR 1:1 DAR 9:16], q=2-31, 30 fps, 15360 tbn (default)
[2024-12-26 19:32:07] Metadata:
[2024-12-26 19:32:07] handler_name    : VideoHandler
[2024-12-26 19:32:07] vendor_id       : [0][0][0][0]
[2024-12-26 19:32:07] encoder         : Lavc61.8.100 libx264
[2024-12-26 19:32:07] Side data:
[2024-12-26 19:32:07] cpb: bitrate max/min/avg: 0/0/0 buffer size: 0 vbv_delay: N/A
[2024-12-26 19:32:08] frame=    0 fps=0.0 q=0.0 size=       0KiB time=N/A bitrate=N/A speed=N/A
[2024-12-26 19:32:09] frame=    0 fps=0.0 q=0.0 size=       0KiB time=N/A bitrate=N/A speed=N/A
[2024-12-26 19:32:09] frame=    0 fps=0.0 q=0.0 size=       0KiB time=N/A bitrate=N/A speed=N/A
[2024-12-26 19:32:10] frame=    0 fps=0.0 q=0.0 size=       0KiB time=N/A bitrate=N/A speed=N/A
[2024-12-26 19:32:10] frame=    0 fps=0.0 q=0.0 size=       0KiB time=N/A bitrate=N/A speed=N/A
[2024-12-26 19:32:11] frame=    0 fps=0.0 q=0.0 size=       0KiB time=N/A bitrate=N/A speed=N/A
[2024-12-26 19:32:11] frame=    0 fps=0.0 q=0.0 size=       0KiB time=N/A bitrate=N/A speed=N/A
[2024-12-26 19:32:12] frame=    0 fps=0.0 q=0.0 size=       0KiB time=N/A bitrate=N/A speed=N/A
[2024-12-26 19:32:12] frame=    0 fps=0.0 q=0.0 size=       0KiB time=N/A bitrate=N/A speed=N/A
[2024-12-26 19:32:13] frame=    0 fps=0.0 q=0.0 size=       0KiB time=N/A bitrate=N/A speed=N/A
[2024-12-26 19:32:13] frame=    3 fps=0.5 q=29.0 size=       0KiB time=00:00:00.03 bitrate=  11.5kbits/s speed=0.00588x
[2024-12-26 19:32:14] frame=   10 fps=1.6 q=29.0 size=       0KiB time=00:00:00.26 bitrate=   1.4kbits/s speed=0.0432x
[2024-12-26 19:32:15] frame=   17 fps=2.5 q=29.0 size=       0KiB time=00:00:00.50 bitrate=   0.8kbits/s speed=0.0746x
[2024-12-26 19:32:15] frame=   24 fps=3.3 q=29.0 size=     256KiB time=00:00:00.73 bitrate=2860.3kbits/s speed=0.102x
[2024-12-26 19:32:16] frame=   31 fps=4.0 q=29.0 size=     256KiB time=00:00:00.96 bitrate=2169.9kbits/s speed=0.125x
[2024-12-26 19:32:16] frame=   38 fps=4.6 q=29.0 size=     256KiB time=00:00:01.20 bitrate=1747.9kbits/s speed=0.146x
[2024-12-26 19:32:17] frame=   44 fps=5.0 q=29.0 size=     256KiB time=00:00:01.40 bitrate=1498.2kbits/s speed=0.16x
[2024-12-26 19:32:17] frame=   51 fps=5.5 q=29.0 size=     512KiB time=00:00:01.63 bitrate=2568.2kbits/s speed=0.176x
[2024-12-26 19:32:18] frame=   59 fps=6.0 q=29.0 size=     512KiB time=00:00:01.90 bitrate=2207.7kbits/s speed=0.194x
[2024-12-26 19:32:18] frame=   66 fps=6.4 q=29.0 size=     512KiB time=00:00:02.13 bitrate=1966.3kbits/s speed=0.207x
[2024-12-26 19:32:19] frame=   72 fps=6.7 q=29.0 size=     768KiB time=00:00:02.33 bitrate=2696.5kbits/s speed=0.216x
[2024-12-26 19:32:19] frame=   80 fps=7.1 q=29.0 size=     768KiB time=00:00:02.60 bitrate=2419.9kbits/s speed=0.229x
[2024-12-26 19:32:20] frame=   88 fps=7.4 q=29.0 size=     768KiB time=00:00:02.86 bitrate=2194.8kbits/s speed=0.242x
[2024-12-26 19:32:20] frame=   95 fps=7.7 q=29.0 size=     768KiB time=00:00:03.10 bitrate=2029.6kbits/s speed=0.251x
[2024-12-26 19:32:21] frame=  101 fps=7.8 q=29.0 size=    1024KiB time=00:00:03.30 bitrate=2542.1kbits/s speed=0.256x
[2024-12-26 19:32:21] frame=  108 fps=8.1 q=29.0 size=    1024KiB time=00:00:03.53 bitrate=2374.2kbits/s speed=0.264x
[2024-12-26 19:32:22] frame=  116 fps=8.3 q=29.0 size=    1024KiB time=00:00:03.80 bitrate=2207.6kbits/s speed=0.273x
[2024-12-26 19:32:22] frame=  124 fps=8.6 q=29.0 size=    1280KiB time=00:00:04.06 bitrate=2578.6kbits/s speed=0.282x
[2024-12-26 19:32:23] frame=  132 fps=8.8 q=29.0 size=    1280KiB time=00:00:04.33 bitrate=2419.9kbits/s speed=0.29x
[2024-12-26 19:32:23] frame=  140 fps=9.1 q=29.0 size=    1280KiB time=00:00:04.60 bitrate=2279.6kbits/s speed=0.297x
[2024-12-26 19:32:24] frame=  147 fps=9.2 q=29.0 size=    1536KiB time=00:00:04.83 bitrate=2603.4kbits/s speed=0.303x
[2024-12-26 19:32:24] frame=  155 fps=9.4 q=29.0 size=    1536KiB time=00:00:05.10 bitrate=2467.3kbits/s speed=0.309x
[2024-12-26 19:32:25] frame=  164 fps=9.6 q=29.0 size=    1536KiB time=00:00:05.40 bitrate=2330.2kbits/s speed=0.318x
[2024-12-26 19:32:25] frame=  172 fps=9.8 q=29.0 size=    1792KiB time=00:00:05.66 bitrate=2590.7kbits/s speed=0.323x
[2024-12-26 19:32:26] frame=  180 fps= 10 q=29.0 size=    1792KiB time=00:00:05.93 bitrate=2474.2kbits/s speed=0.329x
[2024-12-26 19:32:26] frame=  189 fps= 10 q=29.0 size=    1792KiB time=00:00:06.23 bitrate=2355.2kbits/s speed=0.336x
[2024-12-26 19:32:27] frame=  198 fps= 10 q=29.0 size=    2048KiB time=00:00:06.53 bitrate=2568.0kbits/s speed=0.343x
[2024-12-26 19:32:27] frame=  207 fps= 11 q=29.0 size=    2048KiB time=00:00:06.83 bitrate=2455.3kbits/s speed=0.349x
[2024-12-26 19:32:28] frame=  215 fps= 11 q=29.0 size=    2048KiB time=00:00:07.10 bitrate=2363.0kbits/s speed=0.353x
[2024-12-26 19:32:28] frame=  223 fps= 11 q=29.0 size=    2304KiB time=00:00:07.36 bitrate=2562.2kbits/s speed=0.357x
[2024-12-26 19:32:29] frame=  235 fps= 11 q=29.0 size=    2304KiB time=00:00:07.76 bitrate=2430.2kbits/s speed=0.368x
[2024-12-26 19:32:29] [out#0/mp4 @ 000001762ae39580] video:2965KiB audio:0KiB subtitle:0KiB other streams:0KiB global headers:0KiB muxing overhead: 0.129110%
[2024-12-26 19:32:29] frame=  299 fps= 14 q=-1.0 Lsize=    2969KiB time=00:00:09.90 bitrate=2456.6kbits/s speed=0.465x
[2024-12-26 19:32:29] [libx264 @ 000001762ae3d2c0] frame I:2     Avg QP:21.41  size: 48036
[2024-12-26 19:32:29] [libx264 @ 000001762ae3d2c0] frame P:209   Avg QP:23.48  size: 13025
[2024-12-26 19:32:29] [libx264 @ 000001762ae3d2c0] frame B:88    Avg QP:24.80  size:  2469
[2024-12-26 19:32:29] [libx264 @ 000001762ae3d2c0] consecutive B-frames: 45.5% 44.8%  3.0%  6.7%
[2024-12-26 19:32:29] [libx264 @ 000001762ae3d2c0] mb I  I16..4: 19.4% 75.3%  5.3%
[2024-12-26 19:32:29] [libx264 @ 000001762ae3d2c0] mb P  I16..4:  3.4% 11.5%  0.2%  P16..4: 50.4%  9.4%  3.5%  0.0%  0.0%    skip:21.6%
[2024-12-26 19:32:29] [libx264 @ 000001762ae3d2c0] mb B  I16..4:  0.6%  1.6%  0.0%  B16..8: 30.2%  1.2%  0.1%  direct: 0.7%  skip:65.6%  L0:39.6% L1:57.2% BI: 3.2%
[2024-12-26 19:32:29] [libx264 @ 000001762ae3d2c0] 8x8 transform intra:76.2% inter:85.5%
[2024-12-26 19:32:29] [libx264 @ 000001762ae3d2c0] coded y,uvDC,uvAC intra: 43.4% 70.5% 12.9% inter: 14.2% 21.4% 0.3%
[2024-12-26 19:32:29] [libx264 @ 000001762ae3d2c0] i16 v,h,dc,p: 36% 17% 21% 26%
[2024-12-26 19:32:29] [libx264 @ 000001762ae3d2c0] i8 v,h,dc,ddl,ddr,vr,hd,vl,hu: 30% 18% 33%  3%  3%  4%  3%  4%  2%
[2024-12-26 19:32:29] [libx264 @ 000001762ae3d2c0] i4 v,h,dc,ddl,ddr,vr,hd,vl,hu: 29% 16% 10%  5% 11% 11%  8%  7%  4%
[2024-12-26 19:32:29] [libx264 @ 000001762ae3d2c0] i8c dc,h,v,p: 43% 19% 30%  8%
[2024-12-26 19:32:29] [libx264 @ 000001762ae3d2c0] Weighted P-Frames: Y:0.0% UV:0.0%
[2024-12-26 19:32:29] [libx264 @ 000001762ae3d2c0] ref P L0: 76.1% 13.5%  8.1%  2.3%
[2024-12-26 19:32:29] [libx264 @ 000001762ae3d2c0] ref B L0: 87.1% 12.2%  0.7%
[2024-12-26 19:32:29] [libx264 @ 000001762ae3d2c0] ref B L1: 98.6%  1.4%
[2024-12-26 19:32:29] [libx264 @ 000001762ae3d2c0] kb/s:2436.50
[2024-12-26 19:32:36] C:\ProgramData\miniconda3\envs\tango\lib\site-packages\timm\models\layers\__init__.py:48: FutureWarning: Importing from timm.models.layers is deprecated, please import via timm.layers
[2024-12-26 19:32:36] warnings.warn(f"Importing from {__name__} is deprecated, please import via timm.layers", FutureWarning)
[2024-12-26 19:32:36] [92m12-26 19:32:36[0m Load checkpoint from C:\computer\3\itproject\manyaitools_modules\TANGO\SMPLer-X\main\../pretrained_models\smpler_x_s32.pth.tar
[2024-12-26 19:32:36] [92m12-26 19:32:36[0m Creating graph...
[2024-12-26 19:32:38] Loads checkpoint by local backend from path: C:\computer\3\itproject\manyaitools_modules\TANGO\SMPLer-X\main\../pretrained_models/mmdet/faster_rcnn_r50_fpn_1x_coco_20200130-047c8118.pth
[2024-12-26 19:33:11] 0%|          | 0/1 [00:00<?, ?it/s]
[2024-12-26 19:33:11] 100%|â–ˆâ–ˆâ–ˆâ–ˆâ–ˆâ–ˆâ–ˆâ–ˆâ–ˆâ–ˆ| 1/1 [00:33<00:00, 33.47s/it]
[2024-12-26 19:33:11] 100%|â–ˆâ–ˆâ–ˆâ–ˆâ–ˆâ–ˆâ–ˆâ–ˆâ–ˆâ–ˆ| 1/1 [00:33<00:00, 33.47s/it]
[2024-12-26 19:33:12] [0mcmd_smplx:  cd ./SMPLer-X/ && python app.py --video_folder_path C:\computer\3\itproject\manyaitools_modules\TANGO\outputs/tmpvideo --data_save_path C:\computer\3\itproject\manyaitools_modules\TANGO\outputs/tmpdata --json_save_path C:\computer\3\itproject\manyaitools_modules\TANGO\outputs/save_video.json && cd ..
[2024-12-26 19:33:14] json_path C:\computer\3\itproject\manyaitools_modules\TANGO\outputs/save_video.json
[2024-12-26 19:33:16] 0%|          | 0/299 [00:00<?, ?it/s]
[2024-12-26 19:33:16] 100%|â–ˆâ–ˆâ–ˆâ–ˆâ–ˆâ–ˆâ–ˆâ–ˆâ–ˆâ–ˆ| 299/299 [00:00<00:00, 149386.17it/s]
[2024-12-26 19:33:17] nodes: 299, edges: 734
[2024-12-26 19:33:17] Average In-degree: 2.4548494983277593
[2024-12-26 19:33:17] Average Out-degree: 2.4548494983277593
[2024-12-26 19:33:17] max in degree: 9, max out degree: 26
[2024-12-26 19:33:17] min in degree: 1, min out degree: 1
[2024-12-26 19:33:17] average_dis_continue: 0.00990099009900991
[2024-12-26 19:33:17] Moviepy - Building video C:\computer\3\itproject\manyaitools_modules\TANGO\tmp\video_only_1735212797.1405237.mp4.
[2024-12-26 19:33:17] Moviepy - Writing video C:\computer\3\itproject\manyaitools_modules\TANGO\tmp\video_only_1735212797.1405237.mp4
[2024-12-26 19:33:17] t:   0%|          | 0/101 [00:00<?, ?it/s, now=None]
[2024-12-26 19:33:17] t:  19%|â–ˆâ–‰        | 19/101 [00:00<00:00, 188.12it/s, now=None]
[2024-12-26 19:33:17] t:  48%|â–ˆâ–ˆâ–ˆâ–ˆâ–Š     | 48/101 [00:00<00:00, 226.57it/s, now=None]
[2024-12-26 19:33:17] t:  73%|â–ˆâ–ˆâ–ˆâ–ˆâ–ˆâ–ˆâ–ˆâ–Ž  | 74/101 [00:00<00:00, 241.06it/s, now=None]
[2024-12-26 19:33:17] Moviepy - Done !
[2024-12-26 19:33:17] Moviepy - video ready C:\computer\3\itproject\manyaitools_modules\TANGO\tmp\video_only_1735212797.1405237.mp4
[2024-12-26 19:33:17] before nodes: 299, edges: 734
[2024-12-26 19:33:17] after nodes: 299, edges: 734
[2024-12-26 19:33:17] Average In-degree: 2.4548494983277593
[2024-12-26 19:33:17] Average Out-degree: 2.4548494983277593
[2024-12-26 19:33:17] max in degree: 9, max out degree: 26
[2024-12-26 19:33:17] min in degree: 1, min out degree: 1
[2024-12-26 19:33:18] [0mcmd_graph:  python ./create_graph.py --json_save_path C:\computer\3\itproject\manyaitools_modules\TANGO\outputs/save_video.json --graph_save_path C:\computer\3\itproject\manyaitools_modules\TANGO\outputs/save_video.pkl
